<svg xmlns="http://www.w3.org/2000/svg" viewBox="0 0 488.06 519.6"><defs><style>.cls-1{fill:#ffa750;}</style></defs><g id="Layer_2" data-name="Layer 2"><g id="ëÎÓÈ_1" data-name="ëÎÓÈ 1"><path class="cls-1" d="M344.34,59C265.67-19.67,137.67-19.67,59,59s-78.67,206.67,0,285.34,206.67,78.67,285.34,0S423,137.67,344.34,59ZM88.81,314.53C26.58,252.3,26.58,151,88.81,88.81s163.49-62.23,225.72,0,62.23,163.49,0,225.72S151,376.76,88.81,314.53Z"/><path class="cls-1" d="M374.6,341.14a200.71,200.71,0,0,1-33,33.13L452.83,508.16a39,39,0,0,0,35.23,10.7V436.12C460.15,412.78,409.13,370.11,374.6,341.14Z"/></g></g></svg>